<?xml version="1.0" encoding="utf-8"?>
<svg viewBox="1214.9224853515625 891.7644653320312 124.7999267578125 176.70001220703125" width="124.7999267578125" height="176.70001220703125" xmlns="http://www.w3.org/2000/svg"><g transform="matrix(1, 0, 0, 1, 33.62251281738281, -82.93552398681642)">
			<path fill="#CCCCCC" d="M1237.2,1076.4c-4.3,0-8.4-0.7-12.2-2.1v11.4c0.2,0,0.5-0.1,0.7-0.1c0.2,0,0.4-0.1,0.6-0.1&#10;&#9;&#9;&#9;&#9;c0.9-0.1,1.9-0.2,2.8-0.2c0.1,0,0.1,0,0.2,0c0.8,0,1.6,0.3,2.1,0.9c0.2,0.2,0.3,0.4,0.5,0.6l0.7,1.2l11,19.1l11-19.1l0.7-1.2&#10;&#9;&#9;&#9;&#9;c0.5-0.9,1.5-1.5,2.6-1.5c0,0,0,0,0,0c0.1,0,0.1,0,0.2,0c1,0.1,1.9,0.1,2.8,0.2c0.2,0,0.4,0.1,0.6,0.1c0.2,0,0.5,0.1,0.7,0.1&#10;&#9;&#9;&#9;&#9;v-11.4c-3.8,1.3-7.9,2.1-12.2,2.1H1237.2z"/>
			<path fill="#CCCCCC" d="M1250.3,1073.4c18.6,0,33.9-15.2,33.9-33.9v-6.5h-9.8c-1.7,0-3-1.3-3-3v-26.4c-6,2.7-12.5,4.1-19.1,4.1&#10;&#9;&#9;&#9;&#9;h-17c-6.6,0-13.1-1.4-19.1-4.1v26.4c0,1.7-1.3,3-3,3h-9.8v6.5c0,18.6,15.2,33.9,33.9,33.9H1250.3z"/>
			<path fill="#CCCCCC" d="M1213.1,1002.1c-2.7-1.5-5.3-3.2-7.7-5.2c-1.3,3.6-2.1,7.6-2.1,11.6v21.4h9.8V1002.1z"/>
			<path fill="#CCCCCC" d="M1274.4,1030h9.8v-21.4c0-4.1-0.7-8-2.1-11.6c-2.4,2-5,3.7-7.7,5.2V1030z"/>
			<path fill="#CCCCCC" d="M1271.9,1091.1c-0.1,0.2-0.1,0.4-0.3,0.6l-25.3,43.9c-0.5,0.9-1.5,1.5-2.6,1.5c-1.1,0-2.1-0.6-2.6-1.5&#10;&#9;&#9;&#9;&#9;l-25.3-43.9c-0.1-0.2-0.2-0.4-0.3-0.6c-19.8,7-34.1,25.9-34.2,48c19.2,8,40.3,12.3,62.4,12.3c22.1,0,43.2-4.4,62.4-12.3&#10;&#9;&#9;&#9;&#9;C1306.1,1117,1291.8,1098.1,1271.9,1091.1z"/>
			<path fill="#CCCCCC" d="M1269.1,1090.2c-3.5-1-7.2-1.7-11-1.9l-0.7,1.2l-13.6,23.6l-13.6-23.6l-0.7-1.2c-3.8,0.2-7.5,0.9-11,1.9&#10;&#9;&#9;&#9;&#9;l25.3,43.9L1269.1,1090.2z"/>
			<path fill="#CCCCCC" d="M1252.2,1004.7c10.9,0,20.9-4,28.6-10.6c-5.5-11.4-17.1-19.4-30.6-19.4h-13.1c-13.4,0-25.1,7.9-30.6,19.4&#10;&#9;&#9;&#9;&#9;c7.7,6.6,17.7,10.6,28.6,10.6H1252.2z"/>
		</g></svg>